<?xml version="1.0" encoding="UTF-8"?>
<!-- Generator: Adobe Illustrator 24.0.1, SVG Export Plug-In . SVG Version: 6.00 Build 0)  -->
<svg version="1.2" baseProfile="tiny" id="Calque_1" xmlns="http://www.w3.org/2000/svg" xmlns:xlink="http://www.w3.org/1999/xlink" x="0px" y="0px" viewBox="0 0 499.05 107.07" xml:space="preserve">
<g>
	<path fill="#E6E6E6" d="M148.85,62.67c0,4.59-0.09,8.49-1.73,11.96c-2.08,4.59-7.54,7.8-13.52,7.8c-0.29,0-1.57-0.01-1.85-0.02   c-6.44-0.26-11.46-3.5-13.79-8.73c-1.82-4.16-2.25-9.27-2.25-15.94V24.63c0,0.02,0,0,0-0.09h-8.23v0.1v36.73   c0,16.81,6.41,24.43,22.09,24.43c0.08,0,1.16,0,1.24,0c15.68-0.08,22.63-7.53,22.63-23.57v-37.7h-4.59V62.67z"/>
	<path fill="#E6E6E6" d="M204.92,76.45l-19.58-54.24l-1.73,0.09c-1.47,1.56-3.12,2.86-4.77,3.73c0,0.35,0,0.69,0,1.04   c0,4.07-1.3,7.89-2.86,12.04l-12.13,34.05c-2.25,6.33-3.99,9.53-9.1,9.53c-0.17,0-0.43,0-0.61,0v2.17   c3.55-0.17,6.76-0.26,9.62-0.26c2.08,0,5.72,0.09,10.92,0.26v-2.17c-5.63,0-7.97-1.04-7.97-4.33c0-0.95,0.35-3.03,1.39-6.07   l3.73-11.54c1.6-0.04,6.05-0.12,10.16,0.02c0.04,0,0.09,0,0.13,0v-2.91c-0.04,0-0.09,0-0.13,0c-5.52-0.02-7.83-1.06-7.84-4.31   l6.6-20.43l14.99,42.11c0.61,1.91,1.04,3.38,1.04,4.42c0,2.34-1.82,2.86-6.07,3.03v2.17c4.77-0.17,8.66-0.26,11.53-0.26   c4.07,0,7.71,0.09,10.92,0.26v-2.43C208.04,82.43,206.57,80.87,204.92,76.45z"/>
	<path fill="#E6E6E6" d="M268.98,71.08l-42.2-46.7c-3.21,0.17-5.63,0.17-7.45,0.17c-1.21,0-3.73,0-7.37-0.09v2.25   c7.63,0.26,10.05,2.69,10.05,9.27v48.67h3.81V35.73l44.97,50h1.91V24.39h-3.73V71.08z"/>
	<path fill="#E6E6E6" d="M367.68,82.08c-9.88,0-12.13-0.78-12.13-8.66V55.31h7.97c8.06,0,10.83,0.69,10.83,7.8c0,0.26,0,0.43,0,0.69   h2.25c-0.35-4.16-0.61-8.06-0.61-11.61c0-2.17,0.17-4.77,0.52-7.97h-2.34c-0.09,5.63-2.17,7.28-7.45,7.28h-11.18V27.24h9.1   c10.31,0,14.73,2.25,15.16,10.4h1.82V24.2c-5.11,0.09-13.43,0.26-25.13,0.26c-5.81,0-11.44-0.09-16.9-0.17v2.17   c6.58,0.35,7.54,1.21,7.54,5.89v43.41c0,5.55-1.13,6.93-7.54,6.93v2.17c3.9-0.09,7.8-0.17,11.7-0.17c4.25,0,15.08,0.09,32.58,0.52   c1.13-5.72,2.51-10.22,3.73-13.26l-2.08-0.61C382.07,80.61,377.82,82.08,367.68,82.08z"/>
	<path fill="#E6E6E6" d="M418.98,81.65c-8.66,0-10.74-1.99-10.74-9.36V24.76h-8.32v48.57c0,0.17,0,0.35,0,0.43   c0,6.85-0.09,8.92-7.1,8.92c-0.26,0-0.61,0-0.87,0v2.17c5.29-0.17,11.09-0.35,17.24-0.35c3.55,0,12.56,0.09,27.29,0.26l3.2-13.26   l-1.99-0.43C435.01,80.87,430.07,81.65,418.98,81.65z"/>
	<path fill="#E6E6E6" d="M324.17,31.81c-7.28-5.89-16.03-7.45-27.73-7.45c-4.33,0-8.58,0.17-12.91,0.17v59.96   c2.86,0,10.83,0.26,14.38,0.26c23.83,0,37.09-12.04,37.09-30.59C335,45.33,331.19,37.53,324.17,31.81z M300.78,81.63   c-7.97,0-8.75-3.12-8.75-11.09V27.22c1.47-0.09,2.86-0.17,4.25-0.17c18.63,0,29.46,10.83,29.46,28.25   C325.73,71.41,316.28,81.63,300.78,81.63z"/>
	<path fill="#E6E6E6" d="M49.37,0C36.31,0,26.42,3.21,16.76,11.68C7.11,20.15,1.36,31.8,0.21,44.94c-1.92,21.9,9.6,40.79,29.81,48.9   l0.32,0.13l-11.98,13.1h3.39l22.12-24.11l28.08,24.11h13.95L69.48,92.3c3.2-1.74,6.26-3.96,9.27-6.72   c9.84-9,15.17-19.06,16.22-30.99c1.32-15.01-2.34-27.21-11.8-37.9C74.58,6.76,62.82,0,49.37,0z M83.49,55.88   c-1.29,14.69-9.55,25.87-19,31.93L48.84,73.73l-14.27,15.6c-5.22-2.82-12.3-7.57-15.95-13.88c-5.52-9.4-8.03-20.82-7.01-32.48   C13.78,18.17,32.09,5.19,49.23,5.19c11.84,0,24.67,9.21,30.12,22.52C82.91,36.39,84.36,45.97,83.49,55.88z"/>
	<path fill="#E6E6E6" d="M490.82,76.45l-19.58-54.24l-1.73,0.09c-1.47,1.56-3.12,2.86-4.77,3.73c0,0.35,0,0.69,0,1.04   c0,4.07-1.3,7.89-2.86,12.04l-12.13,34.05c-2.25,6.33-3.99,9.53-9.1,9.53c-0.17,0-0.43,0-0.61,0v2.17   c3.55-0.17,6.76-0.26,9.62-0.26c2.08,0,5.72,0.09,10.92,0.26v-2.17c-5.63,0-7.97-1.04-7.97-4.33c0-0.95,0.35-3.03,1.39-6.07   l3.73-11.54c1.68-0.04,6.02-0.12,10.05,0.02c0.04,0,0.09,0,0.13,0v-2.91c-0.04,0-0.09,0-0.13,0c-5.34-0.02-7.67-1-7.82-4.01   l6.7-20.73l14.99,42.11c0.61,1.91,1.04,3.38,1.04,4.42c0,2.34-1.82,2.86-6.07,3.03v2.17c4.77-0.17,8.66-0.26,11.53-0.26   c4.07,0,7.71,0.09,10.92,0.26v-2.43C493.94,82.43,492.47,80.87,490.82,76.45z"/>
</g>
</svg>